<svg xmlns="http://www.w3.org/2000/svg" width="180" height="180"><path fill="#94334B" d="M111 72c-.01.816-.02 1.631-.032 2.472q-.051 4.629-.078 9.259c-.015 1.969-.04 3.937-.066 5.906-.081 16.044 2.86 30.22 9.969 44.613C122 137 122 137 122 140c-11.961.095-23.923.182-35.875-.375l-2.372-.094c-3.718-.2-5.588-.421-8.753-2.531l-3.437-.687c-15.817-3.868-27.508-17.323-35.849-30.555C30.363 96.917 29.838 89.128 30 79l3.875.813C41.878 81.42 49.945 82.683 58 84v2c4.479.117 8.957.188 13.438.25l3.818.102C82.813 86.43 88.432 85.832 95 82l2.75-1.437c2.421-1.577 2.421-1.577 4.75-4.126C104.908 74.09 107.445 72 111 72"/><path fill="#95354D" d="M115 69c3.666-.147 7.332-.234 11-.312l3.121-.127c8.516-.136 12.948 1.984 19.234 7.51 9.312 10.442 12.457 21.242 11.824 34.969-.7 7.651-5.041 14.439-10.179 19.96-6.524 5.165-11.967 6.099-20 6-15.184-26.364-15.184-26.364-15.098-39.484l.005-2.472c.005-2.598.018-5.196.03-7.794q.009-2.646.014-5.293.017-6.478.049-12.957m14 10c-.417 2.5-.417 2.5 0 5 2.77 2.315 2.77 2.315 5.625 1.688 2.31-.462 2.31-.462 3.375-1.688.25-2.458.25-2.458 0-5-1.827-2.25-1.827-2.25-4.5-2.25s-2.673 0-4.5 2.25"/><path fill="#AF9E5A" d="M113 72h1l.044 2.488q.094 4.65.218 9.298c.05 1.98.084 3.959.119 5.939.318 11.425 2.523 20.805 7.557 31.025l1.013 2.129c2.162 4.49 4.39 8.903 7.049 13.121 2.621 1.045 2.621 1.045 5 1a149 149 0 0 1-5.383 3.445c-4.628 2.835-8.78 5.578-12.617 9.43-6.724 6.272-15.674 9.486-24 13.125l-2.038.927C88.115 165.204 86.16 166 83 166l-.563-2.447a1226 1226 0 0 0-2.624-10.928l-.885-3.852-.908-3.671-.81-3.396c-.975-2.927-.975-2.927-3.836-4.087L71 137c1.813-.625 1.813-.625 4-1l3 2c2.076.363 2.076.363 4.38.41l2.668.122 2.87.1 2.947.127c3.107.13 6.215.248 9.323.366q3.159.13 6.318.262 7.746.32 15.494.613l-1.251-3.105-1.64-4.083-.822-2.04c-1.954-4.869-3.748-9.755-5.287-14.772l-1.125-3.562c-1.713-6.73-2.07-13.403-2.062-20.313v-2.377c.144-14.705.144-14.705 3.187-17.748"/><path fill="#B2A35E" d="M19 50c11.074 0 11.074 0 15 2 5.35 7.817 9 20.6 9 30q-2.407-.466-4.812-.937l-2.708-.528C33 80 33 80 30 79l2 18-25-1C1 83.25 1 83.25 1 81q4.185-1.505 8.375-3l2.406-.867 2.305-.82 2.126-.762C18 75 18 75 20 75z"/><path fill="#B0A25C" d="M60 62c4.594.599 8.45 1.834 12.719 3.617l1.881.781q1.959.816 3.913 1.64c1.979.834 3.961 1.658 5.944 2.482C90.059 72.857 95.592 75.234 101 78c-3.559 4.333-7.957 5.926-13 8l-2 1c-2.844.1-5.657.141-8.5.125l-2.457-.006C69.305 87.078 63.696 86.735 58 86l3-1-.496-1.918c-.679-4.15-.61-8.198-.566-12.394l.013-2.534q.02-3.077.049-6.154"/><path fill="#B48179" d="m123.938 67.688 2.65.068c2.138.058 4.275.148 6.412.244v1h-18v32h-1l-1-28-1 6h-1l-1-6h-3c5.724-4.932 9.497-5.68 16.938-5.312"/><path fill="#AA9450" d="M133.5 76.75C136 77 136 77 138 79c.313 2.5.313 2.5 0 5-3 2-3 2-5.625 1.688C130 85 130 85 129 84c-.187-2.437-.187-2.437 0-5 2-2 2-2 4.5-2.25"/></svg>